<svg xmlns="http://www.w3.org/2000/svg" viewBox="0 0 640 440" role="img" aria-label="El casco de Javi cuelga vacío; su sustituto arranca la máquina siguiendo el proceso en la tablet">
<path d="M20 400Q40 372 170 380Q320 364 470 378Q620 368 625 400Q615 430 470 426Q320 438 170 430Q30 434 20 400Z" fill="#E2DFD8"/>
<rect x="56" y="150" width="124" height="150" rx="6" fill="#DAD7D0"/>
<path d="M118 172v18" stroke="#B9B6AE" stroke-width="4" stroke-linecap="round"/>
<path d="M92 214Q93 190 118 190Q142 191 142 212L152 214L152 220L84 220Z" fill="#C9C6BF"/>
<rect x="88" y="244" width="60" height="22" rx="3" fill="#F6F5F2"/>
<text x="118" y="260" text-anchor="middle" font-family="DM Mono, monospace" font-size="13" font-weight="600" fill="#5A5F66">JAVI</text>
<rect x="430" y="170" width="170" height="232" rx="8" fill="#DAD7D0"/>
<rect x="448" y="192" width="100" height="70" rx="4" fill="#ECEAE5"/>
<rect x="462" y="210" width="12" height="36" rx="5" fill="#C9C6BF"/><rect x="482" y="210" width="12" height="36" rx="5" fill="#C9C6BF"/><rect x="502" y="210" width="12" height="36" rx="5" fill="#C9C6BF"/>
<circle cx="578" cy="206" r="7" fill="#3FB950"/>
<path d="M392 270V400" stroke="#141618" stroke-width="3"/><path d="M372 400H412" stroke="#141618" stroke-width="3" stroke-linecap="round"/>
<rect x="358" y="214" width="68" height="58" rx="5" fill="#141618"/><rect x="364" y="220" width="56" height="46" rx="2" fill="#F6F5F2"/>
<rect x="370" y="228" width="26" height="6" rx="3" fill="#F4521E"/><rect x="370" y="240" width="40" height="5" rx="2.5" fill="#C9C6BF"/>
<path d="M398 254l4 4 8-8" fill="none" stroke="#3FB950" stroke-width="3" stroke-linecap="round" stroke-linejoin="round"/>
<g transform="translate(300 400) scale(0.8)"><path d="M-24 -182C-26 -142 -28 -114 -30 -94L-36 -12H-20L-12 -94C-8 -122 -2 -152 2 -182Z" fill="#2B3038"/><path d="M-4 -182C0 -142 4 -114 8 -94L14 -12H30L26 -94C26 -130 26 -158 26 -182Z" fill="#3A4049"/><path d="M17 -150L21 -24" stroke="#2B3038" stroke-width="1.5" opacity=".6"/><path d="M-40 -16h22c3 0 5 2 5 5v8h-31c-3 0-4-3-2-5z" fill="#141618"/><rect x="-44" y="-4" width="31" height="4" rx="2" fill="#5A5F66"/><path d="M10 -18h22c8 0 14 6 16 12l1 3H10z" fill="#141618"/><rect x="10" y="-4" width="40" height="4" rx="2" fill="#5A5F66"/><path d="M-24 -282Q-38 -244 -32 -206" fill="none" stroke="#D2421A" stroke-width="15" stroke-linecap="round"/><circle cx="-31" cy="-198" r="7.5" fill="#4A4F57"/><path d="M-20 -296C-30 -294 -35 -284 -34 -268L-31 -188C-31 -181 -27 -177 -21 -177H26C32 -177 36 -181 36 -188L37 -268C37 -284 30 -294 20 -296Z" fill="#F4521E"/><path d="M-20 -296C-30 -294 -35 -284 -34 -268L-31 -188C-31 -181 -27 -177 -21 -177H-8L-6 -296Z" fill="#DB4618"/><path d="M-33 -228H37V-219H-33ZM-32 -206H36V-198H-32Z" fill="#F2F0EA"/><path d="M-33 -228H-7V-219H-33ZM-32 -206H-8V-198H-32Z" fill="#D8D5CC"/><path d="M6 -294V-178" stroke="#B83A12" stroke-width="2"/><rect x="15" y="-266" width="15" height="13" rx="2" fill="none" stroke="#B83A12" stroke-width="1.6"/><path d="M-8 -296L6 -282L20 -296Z" fill="#B83A12"/><path d="M-31 -182H36" stroke="#B83A12" stroke-width="3"/><path d="M0 -310h13v16H0z" fill="#9E6049"/><ellipse cx="8" cy="-326" rx="14.5" ry="16.5" fill="#B9765E"/><path d="M21 -330Q28 -323 21 -317Z" fill="#B9765E"/><ellipse cx="0" cy="-323" rx="3.5" ry="5" fill="#A86A53"/><path d="M12 -313Q17 -311 20 -314" fill="none" stroke="#8A4E3A" stroke-width="1.6" stroke-linecap="round"/><path d="M-6 -330Q-9 -314 -3 -310L3 -320Z" fill="#2B1D16"/><path d="M-9 -330Q-8 -354 9 -355Q28 -355 28 -332Z" fill="#F2C14E"/><path d="M9 -355Q-8 -354 -9 -330H2Q1 -350 9 -355Z" fill="#E0A92E"/><path d="M-12 -333H36Q38 -333 38 -330V-328H-12Z" fill="#E0A92E"/><path d="M10 -355V-333" stroke="#E0A92E" stroke-width="2.5"/><path d="M26 -286L55 -245" fill="none" stroke="#F4521E" stroke-width="16" stroke-linecap="round"/><path d="M55 -245L95 -244" fill="none" stroke="#F4521E" stroke-width="13" stroke-linecap="round"/><circle cx="95" cy="-244" r="7.5" fill="#4A4F57"/></g>
<rect x="40" y="48" width="238" height="54" rx="16" fill="#E2DFD8"/><path d="M110 100l2 22 18-22z" fill="#E2DFD8"/>
<circle cx="66" cy="75" r="7" fill="#EF4444"/>
<text x="82" y="83" font-family="DM Sans, sans-serif" font-weight="700" font-size="21" fill="#141618">Javi · de baja</text>
<rect x="290" y="56" width="259" height="54" rx="16" fill="#F4521E"/><path d="M330 108l-4 22 24-22z" fill="#F4521E"/>
<path d="M310 83l7 7 13-14" fill="none" stroke="#141618" stroke-width="4" stroke-linecap="round" stroke-linejoin="round"/>
<text x="340" y="91" font-family="DM Sans, sans-serif" font-weight="700" font-size="21" fill="#141618">Proceso cargado</text>
</svg>
