<svg xmlns="http://www.w3.org/2000/svg" viewBox="0 0 640 440" role="img" aria-label="El operario firma en la tablet al completar el proceso y el supervisor lo valida desde su móvil">
<path d="M20 400Q40 372 170 380Q320 364 470 378Q620 368 625 400Q615 430 470 426Q320 438 170 430Q30 434 20 400Z" fill="#E2DFD8"/>
<rect x="40" y="210" width="140" height="190" rx="8" fill="#DAD7D0"/><rect x="150" y="224" width="18" height="162" rx="4" fill="#C9C6BF"/><rect x="56" y="230" width="78" height="68" rx="4" fill="#ECEAE5"/><circle cx="159" cy="240" r="5" fill="#3FB950" class="ilus-blink"/><rect x="56" y="324" width="78" height="7" rx="3.5" fill="#C9C6BF"/><rect x="56" y="340" width="47" height="7" rx="3.5" fill="#C9C6BF"/>
<g class="ilus-breathe" style="--d:0.00s"><g transform="translate(250 400) scale(0.8 0.8)"><path d="M-24 -182C-26 -142 -28 -114 -30 -94L-36 -12H-20L-12 -94C-8 -122 -2 -152 2 -182Z" fill="#2B3038"/><path d="M-4 -182C0 -142 4 -114 8 -94L14 -12H30L26 -94C26 -130 26 -158 26 -182Z" fill="#3A4049"/><path d="M17 -150L21 -24" stroke="#2B3038" stroke-width="1.5" opacity=".6"/><path d="M-40 -16h22c3 0 5 2 5 5v8h-31c-3 0-4-3-2-5z" fill="#141618"/><rect x="-44" y="-4" width="31" height="4" rx="2" fill="#5A5F66"/><path d="M10 -18h22c8 0 14 6 16 12l1 3H10z" fill="#141618"/><rect x="10" y="-4" width="40" height="4" rx="2" fill="#5A5F66"/><path d="M-24.0 -282.0L3.6 -240.3" stroke="#D2421A" stroke-width="16" stroke-linecap="round"/><path d="M3.6 -240.3L33.6 -210.9" stroke="#D2421A" stroke-width="13" stroke-linecap="round"/><circle cx="38.8" cy="-214.1" r="3.6" fill="#4A4F57"/><circle cx="33.6" cy="-210.9" r="7.5" fill="#4A4F57"/><path d="M-20 -296C-30 -294 -35 -284 -34 -268L-31 -188C-31 -181 -27 -177 -21 -177H26C32 -177 36 -181 36 -188L37 -268C37 -284 30 -294 20 -296Z" fill="#F4521E"/><path d="M-20 -296C-30 -294 -35 -284 -34 -268L-31 -188C-31 -181 -27 -177 -21 -177H-8L-6 -296Z" fill="#DB4618"/><path d="M-33 -228H37V-219H-33ZM-32 -206H36V-198H-32Z" fill="#F2F0EA"/><path d="M-33 -228H-7V-219H-33ZM-32 -206H-8V-198H-32Z" fill="#D8D5CC"/><path d="M6 -294V-178" stroke="#B83A12" stroke-width="2"/><rect x="15" y="-266" width="15" height="13" rx="2" fill="none" stroke="#B83A12" stroke-width="1.6"/><path d="M-8 -296L6 -282L20 -296Z" fill="#B83A12"/><path d="M-31 -182H36" stroke="#B83A12" stroke-width="3"/><path d="M0 -310h13v16H0z" fill="#D98B6E"/><ellipse cx="8" cy="-326" rx="14.5" ry="16.5" fill="#F0A585"/><path d="M21 -331Q29 -323 21 -318Z" fill="#F0A585"/><ellipse cx="0" cy="-323" rx="3.5" ry="5" fill="#E3906F"/><circle cx="10.5" cy="-318" r="3.4" fill="#C97A5C" opacity=".3"/><ellipse cx="16.5" cy="-324.5" rx="1.9" ry="2.4" fill="#23272D"/><path d="M13 -330.5Q16.5 -332.5 20.5 -330.5" fill="none" stroke="#7A4A35" stroke-width="2" stroke-linecap="round"/><path d="M14.5 -313.5Q18 -311 21 -314" fill="none" stroke="#C97A5C" stroke-width="1.7" stroke-linecap="round"/><path d="M-6 -330Q-9 -314 -3 -310L3 -320Z" fill="#7A4A35"/><path d="M-9 -330Q-8 -354 9 -355Q28 -355 28 -332Z" fill="#F2C14E"/><path d="M9 -355Q-8 -354 -9 -330H2Q1 -350 9 -355Z" fill="#E0A92E"/><path d="M-12 -333H36Q38 -333 38 -330V-328H-12Z" fill="#E0A92E"/><path d="M10 -355V-333" stroke="#E0A92E" stroke-width="2.5"/><g transform="translate(70 -205) rotate(-20)"><rect x="-26" y="-20" width="52" height="38" rx="5" fill="#141618"/><rect x="-21" y="-15" width="42" height="28" rx="2" fill="#F6F5F2"/><path d="M-8 2q4 -10 7 0t6 -2 6 0" fill="none" stroke="#141618" stroke-width="2" stroke-linecap="round" class="ilus-draw" pathLength="1"/></g><path d="M26.0 -286.0L48.1 -241.1" stroke="#F4521E" stroke-width="16" stroke-linecap="round"/><path d="M48.1 -241.1L74.0 -208.1" stroke="#F4521E" stroke-width="13" stroke-linecap="round"/><circle cx="79.7" cy="-210.7" r="3.6" fill="#4A4F57"/><circle cx="74.0" cy="-208.1" r="7.5" fill="#4A4F57"/></g></g>
<g class="ilus-breathe" style="--d:0.60s"><g transform="translate(440 400) scale(-0.8 0.8)"><path d="M-24 -182C-26 -142 -28 -114 -30 -94L-36 -12H-20L-12 -94C-8 -122 -2 -152 2 -182Z" fill="#2B3038"/><path d="M-4 -182C0 -142 4 -114 8 -94L14 -12H30L26 -94C26 -130 26 -158 26 -182Z" fill="#3A4049"/><path d="M17 -150L21 -24" stroke="#2B3038" stroke-width="1.5" opacity=".6"/><path d="M-40 -16h22c3 0 5 2 5 5v8h-31c-3 0-4-3-2-5z" fill="#141618"/><rect x="-44" y="-4" width="31" height="4" rx="2" fill="#5A5F66"/><path d="M10 -18h22c8 0 14 6 16 12l1 3H10z" fill="#141618"/><rect x="10" y="-4" width="40" height="4" rx="2" fill="#5A5F66"/><path d="M-24 -282Q-38 -244 -32 -206" fill="none" stroke="#E4E1DA" stroke-width="15" stroke-linecap="round"/><circle cx="-24.8" cy="-197.5" r="3.6" fill="#D9937A"/><circle cx="-31.0" cy="-198.0" r="7.5" fill="#D9937A"/><path d="M-20 -296C-30 -294 -35 -284 -34 -268L-31 -188C-31 -181 -27 -177 -21 -177H26C32 -177 36 -181 36 -188L37 -268C37 -284 30 -294 20 -296Z" fill="#FFFFFF"/><path d="M-20 -296C-30 -294 -35 -284 -34 -268L-31 -188C-31 -181 -27 -177 -21 -177H-8L-6 -296Z" fill="#E4E1DA"/><path d="M4 -292V-186" stroke="#D3D0C9" stroke-width="1.5"/><circle cx="7" cy="-270" r="1.6" fill="#B9B6AE"/><circle cx="7" cy="-252" r="1.6" fill="#B9B6AE"/><circle cx="7" cy="-234" r="1.6" fill="#B9B6AE"/><path d="M-6 -297L4 -284L10 -297ZM4 -284L14 -297L20 -295Z" fill="#E4E1DA"/><rect x="14" y="-262" width="13" height="11" rx="2" fill="none" stroke="#D3D0C9" stroke-width="1.5"/><path d="M-31 -186H35V-178H-31Z" fill="#141618"/><rect x="2" y="-186" width="8" height="8" rx="1" fill="#9A978F"/><path d="M0 -310h13v16H0z" fill="#C27A5E"/><ellipse cx="8" cy="-326" rx="14.5" ry="16.5" fill="#D9937A"/><path d="M21 -331Q29 -323 21 -318Z" fill="#D9937A"/><ellipse cx="0" cy="-323" rx="3.5" ry="5" fill="#C9826A"/><circle cx="10.5" cy="-318" r="3.4" fill="#A86650" opacity=".3"/><ellipse cx="16.5" cy="-324.5" rx="1.9" ry="2.4" fill="#23272D"/><path d="M13 -330.5Q16.5 -332.5 20.5 -330.5" fill="none" stroke="#2B1D16" stroke-width="2" stroke-linecap="round"/><path d="M14.5 -313.5Q18 -311 21 -314" fill="none" stroke="#A86650" stroke-width="1.7" stroke-linecap="round"/><path d="M-8 -322Q-12 -346 6 -348Q22 -350 26 -336Q20 -338 12 -337Q6 -334 3 -328L-2 -320Z" fill="#2B1D16"/><path d="M3 -327H11" stroke="#23272D" stroke-width="1.6"/><rect x="11" y="-329" width="11" height="8" rx="2.5" fill="#FFFFFF" fill-opacity=".25" stroke="#23272D" stroke-width="1.8"/><g transform="translate(58 -198) rotate(-6)"><rect x="-14" y="-18" width="28" height="36" rx="4" fill="#141618"/><rect x="-10" y="-14" width="20" height="28" rx="2" fill="#3FB950"/><path d="M-5 0l4 4 7-8" stroke="#F6F5F2" stroke-width="2.5" fill="none" stroke-linecap="round"/></g><path d="M26.0 -286.0L35.0 -236.8" stroke="#FFFFFF" stroke-width="16" stroke-linecap="round"/><path d="M35.0 -236.8L51.0 -198.0" stroke="#D9937A" stroke-width="13" stroke-linecap="round"/><circle cx="57.1" cy="-198.9" r="3.6" fill="#D9937A"/><circle cx="51.0" cy="-198.0" r="7.5" fill="#D9937A"/></g></g>
<g class="ilus-bubble" style="--i:0"><rect x="150" y="60" width="260" height="54" rx="16" fill="#F4521E"/><path d="M186 112l2 22 20-22z" fill="#F4521E"/><path d="M170 87.0l7 7 13-14" fill="none" stroke="#141618" stroke-width="4" stroke-linecap="round" stroke-linejoin="round"/><text x="200" y="95" font-family="DM Sans, sans-serif" font-weight="700" font-size="21" fill="#141618">Firmado · operario</text></g>
<g class="ilus-bubble" style="--i:1"><rect x="420" y="40" width="152" height="48" rx="16" fill="#FFFFFF"/><path d="M512 86l22 22 0-22z" fill="#FFFFFF"/><circle cx="446" cy="64.0" r="7" fill="#3FB950" class="ilus-blink"/><text x="462" y="70" font-family="DM Mono, monospace" font-weight="600" font-size="18" fill="#141618">Validado</text></g>
</svg>
