<svg xmlns="http://www.w3.org/2000/svg" viewBox="0 0 640 440" role="img" aria-label="Una operaria propone una mejora desde el puesto y la idea aparece en el tablero de mejora continua">
<path d="M20 400Q40 372 170 380Q320 364 470 378Q620 368 625 400Q615 430 470 426Q320 438 170 430Q30 434 20 400Z" fill="#E2DFD8"/>
<rect x="300" y="70" width="306" height="230" rx="6" fill="#FFFFFF" stroke="#C9C6BF" stroke-width="2"/>
<path d="M402 84V286M504 84V286" stroke="#E2DFD8" stroke-width="2"/>
<text x="318" y="100" font-family="DM Mono, monospace" font-size="12" font-weight="600" fill="#5A5F66">IDEAS</text>
<text x="418" y="100" font-family="DM Mono, monospace" font-size="12" font-weight="600" fill="#5A5F66">EN CURSO</text>
<text x="520" y="100" font-family="DM Mono, monospace" font-size="12" font-weight="600" fill="#5A5F66">ESTÁNDAR</text>
<rect x="316" y="114" width="72" height="44" fill="#F4521E"/><rect x="316" y="168" width="72" height="44" fill="#F2C14E"/><rect x="316" y="222" width="72" height="44" fill="#F2C14E"/>
<rect x="418" y="114" width="72" height="44" fill="#F2C14E"/><rect x="418" y="168" width="72" height="44" fill="#F2C14E"/>
<rect x="520" y="114" width="72" height="44" fill="#E2DFD8"/>
<path d="M546 136l6 6 12-12" fill="none" stroke="#3FB950" stroke-width="3.5" stroke-linecap="round" stroke-linejoin="round"/>
<rect x="324" y="124" width="44" height="5" rx="2.5" fill="#141618" opacity="0.5"/><rect x="324" y="136" width="34" height="5" rx="2.5" fill="#141618" opacity="0.5"/>
<path d="M300 140C260 130 250 150 236 168" fill="none" stroke="#F4521E" stroke-width="3" stroke-dasharray="6 6" stroke-linecap="round"/>
<g transform="translate(170 400) scale(0.8)">
<path d="M-21 -162L5 -162L-11 -2L-33 -2Z" fill="#3A3E44"/><path d="M-3 -162L25 -162L19 0L-3 0Z" fill="#23272D"/>
<path d="M-39 -4h30a7 7 0 0 1 7 7v3h-41a4 4 0 0 1 4-10z" fill="#141618"/><path d="M-5 -2h30a7 7 0 0 1 7 7v3h-41a4 4 0 0 1 4-10z" fill="#141618"/>
<rect x="-1" y="-300" width="12" height="16" fill="#B9765E"/>
<path d="M-25 -258Q-23 -286 1 -288L17 -288Q39 -284 37 -256L33 -156L-27 -156Z" fill="#F4521E"/>
<path d="M-26 -204H35V-196H-26Z" fill="#F6F5F2"/><path d="M-26 -184H34V-178H-26Z" fill="#F6F5F2"/>
<rect x="48" y="-262" width="32" height="42" rx="4" fill="#141618"/><rect x="52" y="-257" width="24" height="32" rx="2" fill="#F4521E"/>
<path d="M27 -268L35 -225L55 -232" fill="none" stroke="#F4521E" stroke-width="16" stroke-linecap="round" stroke-linejoin="round"/><circle cx="57" cy="-233" r="8" fill="#B9765E"/>
<circle cx="-13" cy="-322" r="9" fill="#141618"/>
<ellipse cx="6" cy="-314" rx="15" ry="17" fill="#B9765E"/>
<path d="M-12 -319Q-11 -342 8 -342Q26 -341 26 -321L34 -319L34 -313L-15 -313Z" fill="#F2C14E"/>
</g>
<rect x="40" y="56" width="271" height="54" rx="16" fill="#F4521E"/><path d="M150 108l2 22 20-22z" fill="#F4521E"/>
<circle cx="70" cy="79" r="10" fill="none" stroke="#141618" stroke-width="3"/><path d="M66 92H74M67 97H73" stroke="#141618" stroke-width="3" stroke-linecap="round"/>
<text x="90" y="91" font-family="DM Sans, sans-serif" font-weight="700" font-size="21" fill="#141618">Mejora propuesta</text>
</svg>
