<svg xmlns="http://www.w3.org/2000/svg" viewBox="0 0 640 440" role="img" aria-label="El gerente revisa la documentación de las ayudas a la digitalización junto a una carpeta y unas monedas">
<path d="M20 400Q40 372 170 380Q320 364 470 378Q620 368 625 400Q615 430 470 426Q320 438 170 430Q30 434 20 400Z" fill="#E2DFD8"/>
<path d="M330 300H600" stroke="#141618" stroke-width="4" stroke-linecap="round"/><path d="M348 300L342 400M582 300L588 400" stroke="#141618" stroke-width="3" stroke-linecap="round"/>
<rect x="380" y="250" width="110" height="50" rx="4" fill="#F2C14E"/><rect x="380" y="250" width="110" height="10" fill="#E0A92E"/><text x="435" y="284" font-family="DM Mono, monospace" font-weight="700" font-size="13" fill="#141618" text-anchor="middle">AYUDAS</text>
<ellipse cx="540" cy="296" rx="22" ry="6" fill="#F2C14E" stroke="#C9952A" stroke-width="1.5"/>
<ellipse cx="540" cy="288" rx="22" ry="6" fill="#E0A92E" stroke="#C9952A" stroke-width="1.5"/>
<ellipse cx="540" cy="280" rx="22" ry="6" fill="#F2C14E" stroke="#C9952A" stroke-width="1.5"/>
<ellipse cx="540" cy="272" rx="22" ry="6" fill="#E0A92E" stroke="#C9952A" stroke-width="1.5"/>
<ellipse cx="540" cy="264" rx="22" ry="6" fill="#F2C14E" stroke="#C9952A" stroke-width="1.5"/>
<text x="540" y="260" font-family="DM Mono, monospace" font-weight="700" font-size="16" fill="#C9952A" text-anchor="middle">€</text>
<rect x="40" y="220" width="130" height="180" rx="8" fill="#DAD7D0"/><rect x="140" y="234" width="18" height="152" rx="4" fill="#C9C6BF"/><rect x="56" y="240" width="68" height="65" rx="4" fill="#ECEAE5"/><circle cx="149" cy="250" r="5" fill="#3FB950" class="ilus-blink"/><rect x="56" y="328" width="68" height="7" rx="3.5" fill="#C9C6BF"/><rect x="56" y="344" width="41" height="7" rx="3.5" fill="#C9C6BF"/>
<g class="ilus-breathe" style="--d:0.00s"><g transform="translate(260 400) scale(0.8 0.8)"><path d="M-24 -182C-26 -142 -28 -114 -30 -94L-36 -12H-20L-12 -94C-8 -122 -2 -152 2 -182Z" fill="#2B3038"/><path d="M-4 -182C0 -142 4 -114 8 -94L14 -12H30L26 -94C26 -130 26 -158 26 -182Z" fill="#3A4049"/><path d="M17 -150L21 -24" stroke="#2B3038" stroke-width="1.5" opacity=".6"/><path d="M-40 -16h22c3 0 5 2 5 5v8h-31c-3 0-4-3-2-5z" fill="#141618"/><rect x="-44" y="-4" width="31" height="4" rx="2" fill="#5A5F66"/><path d="M10 -18h22c8 0 14 6 16 12l1 3H10z" fill="#141618"/><rect x="10" y="-4" width="40" height="4" rx="2" fill="#5A5F66"/><path d="M-24 -282Q-38 -244 -32 -206" fill="none" stroke="#2A354B" stroke-width="15" stroke-linecap="round"/><circle cx="-24.8" cy="-197.5" r="3.6" fill="#F0A585"/><circle cx="-31.0" cy="-198.0" r="7.5" fill="#F0A585"/><path d="M-20 -296C-30 -294 -35 -284 -34 -268L-33 -170C-33 -166 -30 -164 -26 -164H31C35 -164 38 -166 38 -170L37 -268C37 -284 30 -294 20 -296Z" fill="#33405A"/><path d="M-20 -296C-30 -294 -35 -284 -34 -268L-33 -170C-33 -166 -30 -164 -26 -164H-8L-6 -296Z" fill="#2A354B"/><path d="M-6 -297L6 -250L20 -297Z" fill="#FFFFFF"/><path d="M4 -290H9L11 -262L6.5 -255L2 -262Z" fill="#F4521E"/><path d="M-6 -297L-2 -276L-8 -270L5 -248ZM20 -297L18 -276L24 -270L7 -248Z" fill="#26304A"/><circle cx="8" cy="-226" r="2" fill="#1B2335"/><circle cx="8" cy="-206" r="2" fill="#1B2335"/><path d="M17 -258h14" stroke="#F6F5F2" stroke-width="3" stroke-linecap="round"/><path d="M0 -310h13v16H0z" fill="#D98B6E"/><ellipse cx="8" cy="-326" rx="14.5" ry="16.5" fill="#F0A585"/><path d="M21 -331Q29 -323 21 -318Z" fill="#F0A585"/><ellipse cx="0" cy="-323" rx="3.5" ry="5" fill="#E3906F"/><circle cx="10.5" cy="-318" r="3.4" fill="#C97A5C" opacity=".3"/><ellipse cx="16.5" cy="-324.5" rx="1.9" ry="2.4" fill="#23272D"/><path d="M13 -330.5Q16.5 -332.5 20.5 -330.5" fill="none" stroke="#B9B6AE" stroke-width="2" stroke-linecap="round"/><path d="M14.5 -313.5Q18 -311 21 -314" fill="none" stroke="#C97A5C" stroke-width="1.7" stroke-linecap="round"/><path d="M-8 -322Q-12 -344 6 -347Q22 -348 25 -336Q18 -338 11 -337Q5 -334 2 -328L-2 -318Z" fill="#E2DFD8"/><g transform="translate(75 -235) rotate(-10)"><rect x="-24" y="-30" width="48" height="60" rx="3" fill="#FFFFFF" stroke="#C9C6BF" stroke-width="2"/><path d="M-14 -16h28M-14 -6h28M-14 4h18" stroke="#C9C6BF" stroke-width="3" stroke-linecap="round"/><path d="M-12 16l4 4 8-8" stroke="#3FB950" stroke-width="3" fill="none" stroke-linecap="round"/></g><path d="M26.0 -286.0L46.2 -240.3" stroke="#33405A" stroke-width="16" stroke-linecap="round"/><path d="M46.2 -240.3L87.5 -232.5" stroke="#33405A" stroke-width="13" stroke-linecap="round"/><circle cx="90.1" cy="-238.1" r="3.6" fill="#F0A585"/><circle cx="87.5" cy="-232.5" r="7.5" fill="#F0A585"/></g></g>
<g class="ilus-bubble" style="--i:0"><rect x="250" y="60" width="332" height="54" rx="16" fill="#F4521E"/><path d="M286 112l2 22 20-22z" fill="#F4521E"/><path d="M270 87.0l7 7 13-14" fill="none" stroke="#141618" stroke-width="4" stroke-linecap="round" stroke-linejoin="round"/><text x="300" y="95" font-family="DM Sans, sans-serif" font-weight="700" font-size="21" fill="#141618">Ayudas a la digitalización</text></g>
</svg>
