<svg xmlns="http://www.w3.org/2000/svg" viewBox="0 0 640 440" role="img" aria-label="El equipo de REELEVO, tres personas alrededor de una mesa alta con un portátil">
<path d="M20 400Q40 372 170 380Q320 364 470 378Q620 368 625 400Q615 430 470 426Q320 438 170 430Q30 434 20 400Z" fill="#E2DFD8"/>
<path d="M240 286H420" stroke="#141618" stroke-width="4" stroke-linecap="round"/><path d="M330 286V400M300 400h60" stroke="#141618" stroke-width="3"/>
<path d="M296 280L284 283H414L402 280Z" fill="#141618"/><path d="M304 280L294 207H386L396 280Z" fill="#141618"/><rect x="306" y="222" width="70" height="8" rx="4" fill="#F4521E"/><rect x="306" y="240" width="50" height="6" rx="3" fill="#3A3E44"/>
<g class="ilus-breathe" style="--d:0.30s"><g transform="translate(578 400) scale(-0.76 0.76)"><path d="M-24 -182C-26 -142 -28 -114 -30 -94L-36 -12H-20L-12 -94C-8 -122 -2 -152 2 -182Z" fill="#2B3038"/><path d="M-4 -182C0 -142 4 -114 8 -94L14 -12H30L26 -94C26 -130 26 -158 26 -182Z" fill="#3A4049"/><path d="M17 -150L21 -24" stroke="#2B3038" stroke-width="1.5" opacity=".6"/><path d="M-40 -16h22c3 0 5 2 5 5v8h-31c-3 0-4-3-2-5z" fill="#141618"/><rect x="-44" y="-4" width="31" height="4" rx="2" fill="#5A5F66"/><path d="M10 -18h22c8 0 14 6 16 12l1 3H10z" fill="#141618"/><rect x="10" y="-4" width="40" height="4" rx="2" fill="#5A5F66"/><path d="M-24 -282Q-38 -244 -32 -206" fill="none" stroke="#E4E1DA" stroke-width="15" stroke-linecap="round"/><circle cx="-24.8" cy="-197.5" r="3.6" fill="#B9765E"/><circle cx="-31.0" cy="-198.0" r="7.5" fill="#B9765E"/><path d="M-20 -296C-30 -294 -35 -284 -34 -268L-31 -188C-31 -181 -27 -177 -21 -177H26C32 -177 36 -181 36 -188L37 -268C37 -284 30 -294 20 -296Z" fill="#FFFFFF"/><path d="M-20 -296C-30 -294 -35 -284 -34 -268L-31 -188C-31 -181 -27 -177 -21 -177H-8L-6 -296Z" fill="#E4E1DA"/><path d="M4 -292V-186" stroke="#D3D0C9" stroke-width="1.5"/><circle cx="7" cy="-270" r="1.6" fill="#B9B6AE"/><circle cx="7" cy="-252" r="1.6" fill="#B9B6AE"/><circle cx="7" cy="-234" r="1.6" fill="#B9B6AE"/><path d="M-6 -297L4 -284L10 -297ZM4 -284L14 -297L20 -295Z" fill="#E4E1DA"/><rect x="14" y="-262" width="13" height="11" rx="2" fill="none" stroke="#D3D0C9" stroke-width="1.5"/><path d="M-31 -186H35V-178H-31Z" fill="#141618"/><rect x="2" y="-186" width="8" height="8" rx="1" fill="#9A978F"/><path d="M0 -310h13v16H0z" fill="#9E6049"/><ellipse cx="8" cy="-326" rx="14.5" ry="16.5" fill="#B9765E"/><path d="M21 -331Q29 -323 21 -318Z" fill="#B9765E"/><ellipse cx="0" cy="-323" rx="3.5" ry="5" fill="#A86A53"/><circle cx="10.5" cy="-318" r="3.4" fill="#8A4E3A" opacity=".3"/><ellipse cx="16.5" cy="-324.5" rx="1.9" ry="2.4" fill="#23272D"/><path d="M13 -330.5Q16.5 -332.5 20.5 -330.5" fill="none" stroke="#141618" stroke-width="2" stroke-linecap="round"/><path d="M14.5 -313.5Q18 -311 21 -314" fill="none" stroke="#8A4E3A" stroke-width="1.7" stroke-linecap="round"/><path d="M-8 -322Q-12 -346 6 -348Q22 -350 26 -336Q20 -338 12 -337Q6 -334 3 -328L-2 -320Z" fill="#141618"/><path d="M3 -327H11" stroke="#23272D" stroke-width="1.6"/><rect x="11" y="-329" width="11" height="8" rx="2.5" fill="#FFFFFF" fill-opacity=".25" stroke="#23272D" stroke-width="1.8"/><path d="M27 -284Q36 -244 31 -206" fill="none" stroke="#FFFFFF" stroke-width="16" stroke-linecap="round"/><circle cx="24.9" cy="-197.0" r="3.6" fill="#B9765E"/><circle cx="31.0" cy="-198.0" r="7.5" fill="#B9765E"/></g></g>
<g class="ilus-breathe" style="--d:0.00s"><g transform="translate(170 400) scale(0.8 0.8)"><path d="M-24 -182C-26 -142 -28 -114 -30 -94L-36 -12H-20L-12 -94C-8 -122 -2 -152 2 -182Z" fill="#2B3038"/><path d="M-4 -182C0 -142 4 -114 8 -94L14 -12H30L26 -94C26 -130 26 -158 26 -182Z" fill="#3A4049"/><path d="M17 -150L21 -24" stroke="#2B3038" stroke-width="1.5" opacity=".6"/><path d="M-40 -16h22c3 0 5 2 5 5v8h-31c-3 0-4-3-2-5z" fill="#141618"/><rect x="-44" y="-4" width="31" height="4" rx="2" fill="#5A5F66"/><path d="M10 -18h22c8 0 14 6 16 12l1 3H10z" fill="#141618"/><rect x="10" y="-4" width="40" height="4" rx="2" fill="#5A5F66"/><path d="M-24 -282Q-38 -244 -32 -206" fill="none" stroke="#275D78" stroke-width="15" stroke-linecap="round"/><circle cx="-24.8" cy="-197.5" r="3.6" fill="#F0A585"/><circle cx="-31.0" cy="-198.0" r="7.5" fill="#F0A585"/><path d="M-20 -296C-30 -294 -35 -284 -34 -268L-31 -188C-31 -181 -27 -177 -21 -177H26C32 -177 36 -181 36 -188L37 -268C37 -284 30 -294 20 -296Z" fill="#2F6F8F"/><path d="M-20 -296C-30 -294 -35 -284 -34 -268L-31 -188C-31 -181 -27 -177 -21 -177H-8L-6 -296Z" fill="#275D78"/><path d="M-6 -297L6 -286L18 -297L20 -292L6 -280L-8 -292Z" fill="#F6F5F2"/><path d="M6 -284V-262" stroke="#1F4E66" stroke-width="2"/><circle cx="6" cy="-270" r="1.6" fill="#F6F5F2"/><path d="M-31 -186H35V-178H-31Z" fill="#141618"/><path d="M0 -310h13v16H0z" fill="#D98B6E"/><ellipse cx="8" cy="-326" rx="14.5" ry="16.5" fill="#F0A585"/><path d="M21 -331Q29 -323 21 -318Z" fill="#F0A585"/><ellipse cx="0" cy="-323" rx="3.5" ry="5" fill="#E3906F"/><circle cx="10.5" cy="-318" r="3.4" fill="#C97A5C" opacity=".3"/><ellipse cx="16.5" cy="-324.5" rx="1.9" ry="2.4" fill="#23272D"/><path d="M13 -330.5Q16.5 -332.5 20.5 -330.5" fill="none" stroke="#3B2A20" stroke-width="2" stroke-linecap="round"/><path d="M14.5 -313.5Q18 -311 21 -314" fill="none" stroke="#C97A5C" stroke-width="1.7" stroke-linecap="round"/><path d="M-1 -322Q0 -306 12 -306Q20 -306 22 -312Q16 -310 12 -312Q8 -314 6 -320Z" fill="#3B2A20"/><path d="M-8 -322Q-12 -346 6 -348Q22 -350 26 -336Q20 -338 12 -337Q6 -334 3 -328L-2 -320Z" fill="#3B2A20"/><path d="M26.0 -286.0L45.6 -240.0" stroke="#2F6F8F" stroke-width="16" stroke-linecap="round"/><path d="M45.6 -240.0L69.7 -205.6" stroke="#F0A585" stroke-width="13" stroke-linecap="round"/><circle cx="75.5" cy="-207.8" r="3.6" fill="#F0A585"/><circle cx="69.7" cy="-205.6" r="7.5" fill="#F0A585"/></g></g>
<g class="ilus-breathe" style="--d:0.60s"><g transform="translate(478 400) scale(-0.8 0.8)"><path d="M-24 -182C-26 -142 -28 -114 -30 -94L-36 -12H-20L-12 -94C-8 -122 -2 -152 2 -182Z" fill="#2B3038"/><path d="M-4 -182C0 -142 4 -114 8 -94L14 -12H30L26 -94C26 -130 26 -158 26 -182Z" fill="#3A4049"/><path d="M17 -150L21 -24" stroke="#2B3038" stroke-width="1.5" opacity=".6"/><path d="M-40 -16h22c3 0 5 2 5 5v8h-31c-3 0-4-3-2-5z" fill="#141618"/><rect x="-44" y="-4" width="31" height="4" rx="2" fill="#5A5F66"/><path d="M10 -18h22c8 0 14 6 16 12l1 3H10z" fill="#141618"/><rect x="10" y="-4" width="40" height="4" rx="2" fill="#5A5F66"/><path d="M-24 -282Q-38 -244 -32 -206" fill="none" stroke="#D2421A" stroke-width="15" stroke-linecap="round"/><circle cx="-24.8" cy="-197.5" r="3.6" fill="#4A4F57"/><circle cx="-31.0" cy="-198.0" r="7.5" fill="#4A4F57"/><path d="M-20 -296C-30 -294 -35 -284 -34 -268L-31 -188C-31 -181 -27 -177 -21 -177H26C32 -177 36 -181 36 -188L37 -268C37 -284 30 -294 20 -296Z" fill="#F4521E"/><path d="M-20 -296C-30 -294 -35 -284 -34 -268L-31 -188C-31 -181 -27 -177 -21 -177H-8L-6 -296Z" fill="#DB4618"/><path d="M-33 -228H37V-219H-33ZM-32 -206H36V-198H-32Z" fill="#F2F0EA"/><path d="M-33 -228H-7V-219H-33ZM-32 -206H-8V-198H-32Z" fill="#D8D5CC"/><path d="M6 -294V-178" stroke="#B83A12" stroke-width="2"/><rect x="15" y="-266" width="15" height="13" rx="2" fill="none" stroke="#B83A12" stroke-width="1.6"/><path d="M-8 -296L6 -282L20 -296Z" fill="#B83A12"/><path d="M-31 -182H36" stroke="#B83A12" stroke-width="3"/><path d="M0 -310h13v16H0z" fill="#C27A5E"/><ellipse cx="8" cy="-326" rx="14.5" ry="16.5" fill="#D9937A"/><path d="M21 -331Q29 -323 21 -318Z" fill="#D9937A"/><ellipse cx="0" cy="-323" rx="3.5" ry="5" fill="#C9826A"/><circle cx="10.5" cy="-318" r="3.4" fill="#A86650" opacity=".3"/><ellipse cx="16.5" cy="-324.5" rx="1.9" ry="2.4" fill="#23272D"/><path d="M13 -330.5Q16.5 -332.5 20.5 -330.5" fill="none" stroke="#2B1D16" stroke-width="2" stroke-linecap="round"/><path d="M14.5 -313.5Q18 -311 21 -314" fill="none" stroke="#A86650" stroke-width="1.7" stroke-linecap="round"/><path d="M-8 -322Q-12 -346 6 -348Q22 -350 26 -336Q20 -338 12 -337Q6 -334 3 -328L-2 -320Z" fill="#2B1D16"/><circle cx="-10" cy="-341" r="8.5" fill="#2B1D16"/><path d="M26.0 -286.0L37.0 -237.2" stroke="#F4521E" stroke-width="16" stroke-linecap="round"/><path d="M37.0 -237.2L54.6 -199.1" stroke="#F4521E" stroke-width="13" stroke-linecap="round"/><circle cx="60.7" cy="-200.2" r="3.6" fill="#4A4F57"/><circle cx="54.6" cy="-199.1" r="7.5" fill="#4A4F57"/></g></g>
<g class="ilus-bubble" style="--i:0"><rect x="60" y="50" width="349" height="54" rx="16" fill="#F4521E"/><path d="M96 102l2 22 20-22z" fill="#F4521E"/><path d="M80 77.0l7 7 13-14" fill="none" stroke="#141618" stroke-width="4" stroke-linecap="round" stroke-linejoin="round"/><text x="110" y="85" font-family="DM Sans, sans-serif" font-weight="700" font-size="21" fill="#141618">Equipo pequeño y cercano</text></g>
</svg>
